<?xml version="1.0" standalone="no"?>
<!DOCTYPE svg PUBLIC "-//W3C//DTD SVG 20010904//EN"
 "http://www.w3.org/TR/2001/REC-SVG-20010904/DTD/svg10.dtd">
<svg version="1.0" xmlns="http://www.w3.org/2000/svg"
 width="2048" height="2048" viewBox="0 0 1000 1000"
 preserveAspectRatio="xMidYMid meet">

<g transform="translate(500,500) scale(3.16) translate(-500,-500)">
<g transform="translate(0.000000,1000.000000) scale(0.100000,-0.100000)"
fill="#000000" stroke="none">
<path d="M4835 6579 c-281 -29 -575 -148 -798 -322 -108 -85 -258 -241 -332
-346 -119 -170 -216 -400 -262 -621 -28 -132 -25 -460 5 -597 71 -325 209
-581 436 -809 228 -227 479 -365 798 -436 91 -20 129 -23 323 -23 206 1 228 2
339 29 415 97 746 326 981 676 309 460 348 1055 104 1567 -103 216 -326 476
-524 610 -320 216 -694 311 -1070 272z m265 -234 c34 -100 47 -125 61 -125 11
0 19 -7 19 -15 0 -12 -13 -15 -60 -15 -47 0 -60 3 -60 15 0 8 7 15 16 15 11 0
14 5 10 16 -3 9 -9 27 -12 40 -5 20 -12 24 -44 24 -34 0 -39 -4 -49 -31 -14
-42 -14 -49 4 -49 8 0 15 -4 15 -9 0 -5 -28 -11 -62 -14 -35 -2 -109 -14 -166
-25 -56 -12 -107 -22 -112 -22 -17 0 -11 18 8 24 18 6 18 9 1 88 -29 134 -27
130 -49 123 -14 -4 -20 -2 -20 9 0 16 13 21 76 31 44 7 70 -9 34 -20 -13 -4
-19 -13 -16 -23 3 -9 12 -56 22 -104 l17 -87 31 6 c55 11 76 22 86 48 12 32
30 32 30 1 0 -20 4 -24 22 -21 12 3 25 8 28 12 6 7 66 162 84 216 3 9 14 17
25 17 15 0 27 -23 61 -125z m-570 25 c0 -5 -7 -13 -16 -18 -14 -8 -11 -18 21
-82 20 -41 38 -88 38 -107 1 -40 -33 -79 -82 -94 -62 -18 -85 -1 -133 96 -34
67 -47 85 -62 83 -40 -6 -24 19 29 45 31 15 58 27 60 27 11 0 4 -30 -9 -37
-12 -7 -8 -23 24 -91 21 -45 46 -85 55 -89 28 -10 85 23 85 51 0 34 -68 178
-80 171 -6 -4 -19 -4 -28 0 -13 5 -7 12 28 30 48 26 70 31 70 15z m1029 -9
c48 -25 63 -44 59 -73 -4 -29 -32 -30 -36 -1 -4 28 -47 63 -77 63 -35 0 -72
-36 -89 -87 -22 -63 -20 -80 9 -108 34 -34 79 -33 102 2 10 14 13 28 8 30 -23
8 -39 22 -32 29 11 11 117 -28 117 -43 0 -7 -8 -13 -18 -13 -10 0 -22 -12 -29
-30 -10 -28 -15 -30 -63 -30 -85 0 -137 39 -151 112 -15 84 49 168 129 168 18
0 50 -9 71 -19z m235 -123 c22 -17 43 -33 45 -34 1 -2 0 -7 -4 -13 -4 -7 -12
-8 -24 -1 -15 8 -26 -3 -69 -65 -29 -40 -52 -80 -52 -89 0 -22 40 -56 65 -56
24 0 43 19 99 98 31 43 36 55 26 67 -24 29 -1 28 44 -1 33 -22 43 -33 36 -44
-7 -11 -11 -11 -23 -1 -13 10 -23 2 -62 -54 -54 -76 -78 -95 -118 -95 -60 0
-125 66 -113 114 3 13 28 54 56 92 51 70 58 84 40 84 -5 0 -10 7 -10 15 0 23
18 18 64 -17z m-1572 -85 c10 -9 18 -27 18 -40 0 -18 5 -23 27 -23 37 0 63
-27 63 -65 0 -40 -23 -70 -103 -134 -35 -27 -76 -68 -91 -90 -17 -24 -33 -38
-42 -34 -10 3 -11 10 -4 23 8 14 3 19 -31 29 -37 11 -41 10 -59 -11 -25 -30
-25 -39 1 -72 16 -20 24 -24 34 -16 21 17 29 -7 11 -33 -31 -44 -43 -57 -55
-57 -14 0 -14 6 -1 30 10 19 -20 78 -101 196 -25 37 -27 43 -13 55 13 10 35 6
132 -25 105 -34 120 -37 142 -24 14 7 27 16 28 20 2 4 5 14 8 23 4 9 -18 44
-56 89 -51 62 -65 74 -80 66 -17 -9 -30 -4 -30 11 0 4 27 28 61 53 66 50 108
59 141 29z m1043 -117 c346 -89 637 -358 748 -693 195 -589 -142 -1214 -740
-1375 -100 -26 -331 -36 -440 -18 -164 26 -335 100 -476 206 -432 325 -548
925 -269 1398 59 99 207 256 307 325 132 92 291 155 451 181 104 16 307 4 419
-24z m804 -28 c23 -24 48 -62 57 -86 16 -41 16 -44 -3 -70 -15 -20 -30 -28
-61 -30 -28 -2 -42 -8 -46 -20 -14 -53 -15 -74 -6 -92 14 -27 -6 -37 -31 -14
-22 20 -24 55 -8 120 9 34 9 48 0 57 -15 15 -64 -31 -58 -55 9 -34 -11 -27
-53 18 -32 35 -39 48 -29 55 7 4 19 3 26 -2 7 -6 18 -7 25 -3 26 16 143 118
141 124 -1 3 -5 13 -8 23 -12 30 13 19 54 -25z m204 -283 c18 -38 23 -55 14
-55 -7 0 -18 5 -24 11 -13 13 -167 -62 -176 -86 -8 -19 6 -57 27 -74 20 -17
65 -5 141 37 40 22 49 32 47 50 -6 38 17 24 43 -27 17 -35 21 -51 12 -54 -6
-2 -17 3 -24 12 -10 14 -20 12 -87 -21 -42 -21 -90 -38 -107 -38 -38 0 -74 35
-90 88 -17 57 2 82 102 132 68 34 79 44 74 60 -4 13 -2 20 7 20 8 0 26 -25 41
-55z m-2440 8 c-3 -7 -14 -13 -24 -13 -17 0 -57 -46 -48 -54 2 -2 42 -23 88
-46 74 -38 86 -41 107 -29 13 7 26 10 29 7 3 -3 -7 -30 -22 -61 -27 -57 -50
-70 -46 -28 3 19 -10 28 -81 62 -46 21 -89 39 -95 39 -20 0 -32 -37 -19 -64
15 -35 7 -40 -30 -19 l-30 17 55 111 56 111 32 -10 c20 -6 31 -15 28 -23z
m-83 -588 c16 -8 41 -31 55 -50 92 -120 -28 -291 -172 -245 -173 56 -142 310
39 310 27 0 62 -7 78 -15z m2659 0 c100 -51 121 -180 40 -257 -53 -51 -110
-59 -176 -27 -69 34 -96 79 -91 150 5 64 31 108 80 132 41 21 110 22 147 2z
m-264 -652 c-5 -20 7 -41 63 -111 37 -48 71 -93 76 -99 14 -24 -3 -31 -51 -21
-169 33 -204 35 -217 17 -7 -11 -17 -15 -25 -10 -9 6 -4 21 20 59 31 51 67 72
54 33 -5 -16 3 -20 57 -30 35 -7 71 -14 81 -17 29 -9 19 12 -34 71 -36 39 -55
53 -62 46 -14 -14 -27 -14 -27 0 0 6 12 30 26 55 27 46 50 50 39 7z m-2231 -8
c28 -18 59 -70 69 -115 4 -19 0 -29 -20 -44 -21 -15 -27 -16 -34 -5 -5 8 -4
18 1 23 27 27 -1 105 -42 119 -27 9 -86 -12 -123 -45 -46 -40 -48 -86 -6 -129
16 -16 39 -29 51 -29 12 0 18 -4 15 -10 -22 -35 -105 16 -125 76 -41 122 105
230 214 159z m2099 -308 c54 -33 77 -72 77 -131 0 -43 -4 -53 -39 -87 -33 -34
-45 -39 -83 -39 -81 0 -153 68 -153 145 0 52 26 92 76 117 46 24 76 22 122 -5z
m-1847 -24 c45 -38 52 -58 20 -58 -13 0 -25 -19 -43 -68 -13 -38 -22 -71 -19
-74 5 -5 86 37 120 62 15 12 17 17 7 29 -8 10 -9 16 -2 21 11 6 91 -52 91 -65
0 -15 -13 -18 -32 -7 -16 10 -36 3 -133 -48 -63 -32 -117 -56 -121 -52 -4 3
12 61 35 128 38 110 40 123 26 139 -13 14 -12 30 2 30 2 0 24 -17 49 -37z
m-258 -49 c4 -26 -20 -37 -44 -20 -24 18 -11 48 18 44 14 -2 24 -11 26 -24z
m1826 -108 c18 -28 4 -45 -20 -25 -12 10 -20 9 -40 -2 -31 -16 -29 -27 27
-124 37 -66 45 -74 66 -69 43 11 25 -20 -29 -48 -37 -20 -55 -25 -63 -17 -7 7
-5 13 8 20 17 10 15 16 -23 87 -53 98 -61 107 -89 93 -12 -7 -21 -22 -21 -35
0 -35 -26 -41 -36 -8 -4 15 -8 31 -8 35 -1 7 191 116 205 117 4 0 14 -11 23
-24z m-1114 -119 c47 -17 86 -31 86 -31 1 -1 -1 -16 -3 -33 -6 -37 -30 -44
-35 -11 -3 21 -26 38 -73 52 -17 5 -23 0 -33 -27 -16 -45 -16 -46 14 -57 18
-7 31 -7 39 0 20 16 26 -3 14 -39 -6 -17 -18 -31 -26 -31 -9 0 -13 6 -10 14 5
12 -30 36 -53 36 -4 0 -15 -20 -23 -45 -15 -42 -14 -44 3 -50 11 -3 17 -12 14
-19 -4 -10 -18 -8 -64 8 -56 20 -76 43 -33 39 16 -2 25 15 55 95 32 89 34 98
18 107 -22 13 -14 39 9 29 9 -4 54 -21 101 -37z m825 -113 c68 -93 80 -105
101 -100 17 5 24 2 24 -8 0 -9 -21 -21 -54 -30 -66 -20 -66 -20 -66 -1 0 8 5
15 10 15 15 0 11 12 -14 44 -22 27 -26 28 -60 16 -33 -11 -36 -15 -36 -51 0
-32 3 -39 20 -39 35 0 21 -18 -27 -34 -26 -9 -50 -16 -55 -16 -16 0 -7 28 10
32 22 6 32 66 32 185 0 58 3 74 18 82 9 6 18 11 19 11 1 0 36 -48 78 -106z
m-567 38 c2 -7 -5 -12 -16 -12 -22 0 -33 -37 -47 -152 -6 -50 -5 -58 9 -58 9
0 16 -7 16 -16 0 -12 -7 -14 -30 -10 -16 3 -43 9 -60 12 -16 3 -30 12 -30 19
0 8 7 11 19 8 16 -4 21 1 25 29 3 18 10 64 16 102 11 68 6 85 -22 86 -4 0 -5
6 -2 14 4 11 15 11 61 2 31 -6 58 -17 61 -24z m192 -3 c0 -6 -9 -13 -20 -16
-18 -5 -20 -14 -20 -109 l0 -104 55 0 c49 0 57 3 67 25 14 32 38 32 38 1 0
-47 -22 -56 -136 -56 -97 0 -133 10 -83 23 20 5 21 10 16 59 -4 29 -7 77 -7
106 0 45 -3 52 -20 52 -11 0 -20 7 -20 15 0 12 14 15 65 15 40 0 65 -4 65 -11z
m-760 -24 c18 -21 5 -47 -22 -43 -26 3 -37 36 -16 49 18 12 24 11 38 -6z"/>
<path d="M5016 6374 c-11 -29 -6 -44 14 -44 22 0 23 3 14 38 -7 26 -19 29 -28
6z"/>
<path d="M4126 6117 c-18 -13 -18 -15 5 -46 l23 -31 25 25 c21 20 24 29 15 43
-14 22 -44 26 -68 9z"/>
<path d="M4198 6036 c-24 -18 -23 -23 11 -61 l29 -33 20 21 c30 34 34 45 22
67 -12 23 -56 26 -82 6z"/>
<path d="M3936 5835 c19 -29 27 -31 44 -10 10 12 8 16 -15 25 -41 15 -47 12
-29 -15z"/>
<path d="M4885 5979 c-218 -28 -403 -119 -568 -278 -129 -125 -225 -291 -269
-467 -31 -124 -31 -353 0 -466 122 -449 500 -748 947 -748 129 0 207 13 328
54 361 123 621 453 656 831 28 312 -77 597 -297 807 -164 156 -343 240 -572
268 -95 11 -126 11 -225 -1z m655 -281 c0 -18 7 -71 15 -118 20 -113 20 -110
-19 -110 -33 0 -36 3 -71 76 -29 60 -43 78 -68 89 -29 12 -142 19 -264 16
l-43 -1 0 -590 c0 -555 -1 -590 -17 -591 -27 -3 -84 1 -120 7 l-33 5 0 584 0
585 -130 0 c-179 0 -199 -9 -246 -106 -34 -71 -37 -74 -70 -74 -38 0 -38 1
-25 81 6 30 13 82 16 117 l7 62 534 0 534 0 0 -32z m-660 -198 c0 -36 -4 -41
-44 -65 -137 -81 -196 -226 -196 -488 0 -320 108 -485 340 -517 166 -23 303
29 351 135 14 30 19 65 19 141 0 99 0 101 -26 113 -15 6 -62 15 -105 18 l-79
6 0 32 0 32 260 0 260 0 0 -32 c0 -31 -2 -33 -47 -39 -89 -13 -83 -4 -83 -129
0 -183 -20 -221 -150 -286 -115 -57 -203 -74 -358 -69 -147 5 -238 31 -331 95
-140 97 -251 320 -251 508 0 224 140 463 321 550 40 19 84 35 96 35 20 0 23
-5 23 -40z m390 7 c30 -13 76 -27 101 -31 l45 -7 17 -88 c21 -109 21 -111 -2
-111 -13 0 -29 18 -49 53 -40 70 -107 130 -176 156 -31 11 -61 21 -66 21 -6 0
-10 10 -10 21 0 20 4 21 43 16 23 -3 67 -17 97 -30z m-219 -1207 c38 0 39 -1
39 -34 0 -41 26 -55 115 -59 l60 -2 0 -34 0 -35 -260 0 -260 0 0 35 0 34 72 6
c84 6 103 19 103 67 l0 35 46 -7 c26 -3 64 -6 85 -6z"/>
<path d="M6027 5940 c-20 -18 -37 -36 -37 -41 0 -5 11 -16 25 -25 54 -35 101
27 62 80 -13 17 -16 17 -50 -14z"/>
<path d="M5910 4153 c-68 -25 -65 -116 6 -172 53 -42 134 -12 134 50 0 64 -88
140 -140 122z"/>
<path d="M5360 3763 c0 -26 4 -33 20 -33 25 0 25 8 0 40 l-20 25 0 -32z"/>
</g>
</g>
</svg>
