<?xml version="1.0" encoding="UTF-8"?>
<!DOCTYPE svg PUBLIC "-//W3C//DTD SVG 1.1//EN" "http://www.w3.org/Graphics/SVG/1.1/DTD/svg11.dtd">
<!-- Creator: CorelDRAW -->
<svg xmlns="http://www.w3.org/2000/svg" xml:space="preserve" width="42.8796mm" height="28.1579mm" version="1.1" style="shape-rendering:geometricPrecision; text-rendering:geometricPrecision; image-rendering:optimizeQuality; fill-rule:evenodd; clip-rule:evenodd"
viewBox="0 0 4275.83 2807.83"
 xmlns:xlink="http://www.w3.org/1999/xlink"
 xmlns:xodm="http://www.corel.com/coreldraw/odm/2003">
 <defs>
  <style type="text/css">
   <![CDATA[
    .fil-bg {fill:#000000}
    .fil0 {fill:#ffffff}
    .fil1 {fill:#2b4f91}
    .fil2 {fill:#2b4f91;fill-rule:nonzero}
    .fil3 {fill:#2b4f91;fill-rule:nonzero}
   ]]>
  </style>
 </defs>
 <g id="Слой_x0020_1">
  <metadata id="CorelCorpID_0Corel-Layer"/>
  <polygon class="fil-bg" points="-0,5.52 4275.83,5.52 4275.83,2807.83 -0,2807.83 "/>
  <polygon class="fil-bg" points="-0,0 4275.83,0 4275.83,2802.3 -0,2802.3 "/>
  <g id="_2351614150352">
   <path class="fil1" d="M579.96 1561.71l-44.08 0 0 43.59 -26.29 0 0 -108.4 26.29 0 0 41.61 44.08 0 0 -41.61 26.39 0 0 108.4 -26.39 0 0 -43.59zm114.67 32.98c-2.7,2.92 -5.97,5.32 -9.46,7.29 -7.21,4.06 -15.42,5.53 -23.61,5.53 -6.94,0 -14,-1.25 -20.13,-4.56 -5.52,-2.85 -10.01,-7.05 -13.04,-12.51 -3.07,-5.51 -4.41,-11.56 -4.41,-17.86 0,-9.53 2.55,-18.56 10.11,-24.79 7.81,-6.44 18.69,-8.1 28.5,-8.1l29.88 0 0 -3.24c0,-4.57 -0.59,-11.17 -4.37,-14.35 -3.77,-3.16 -10,-3.8 -14.72,-3.8 -4.12,0 -9.87,0.39 -13.39,2.68 -2.47,1.71 -4.02,3.93 -4.44,6.98l-0.29 2.06 -25.52 0 0.14 -2.53c0.36,-6.3 2.35,-12.09 6.13,-17.14 3.97,-5.3 9.3,-8.99 15.37,-11.57 7.19,-3.04 15.17,-4.13 22.93,-4.13 7.85,0 15.8,1.12 23.09,4.12 6.67,2.75 12.03,7.07 15.85,13.2 4.28,6.87 5.5,15.31 5.5,23.26l0 41.27c0,4.76 0.05,9.52 0.25,14.31 0.08,3.95 0.41,7.86 0.93,11.74l0.37 2.73 -24.5 0 -0.24 -2.13c-0.3,-2.55 -0.66,-5.14 -0.87,-7.7 -0.02,-0.26 -0.04,-0.52 -0.06,-0.78zm-2.17 -34.17l-25.94 0c-4.09,0 -8.48,0.71 -11.88,3.06 -2.84,2.09 -3.96,4.98 -3.96,8.5 0,3.44 1.13,6.27 3.78,8.52 3.3,2.8 8.86,3.29 12.99,3.29 4.37,0 8.67,-0.71 12.71,-2.3 3.56,-1.49 6.6,-3.74 8.91,-6.92 2.43,-3.16 3.37,-6.88 3.37,-10.81l0 -3.33zm78.08 42.43l-45.06 -106.05 28.73 0 29.93 75.72 27.01 -75.72 27.03 0 -41.33 106.87c-3.16,8.16 -6.71,16.31 -10.92,23.99 -3,5.47 -6.98,10.81 -12.29,14.23 -5.41,3.48 -11.8,4.66 -18.16,4.66 -2.09,0 -4.19,-0.26 -6.25,-0.63l-1.97 -0.36 0 -23.85 2.93 0.67c1.74,0.39 3.52,0.54 5.29,0.54 1.95,0 3.97,-0.35 5.57,-1.59 1.91,-1.39 3.41,-4.03 4.43,-6.05 1.87,-3.98 3.49,-8.26 5.06,-12.42zm141.96 -35.65c-2.4,1.19 -4.9,2.2 -7.41,3.1 -5.15,1.81 -11.14,2.27 -16.56,2.27 -10.64,0 -21.89,-2.09 -30.03,-9.43 -8.34,-7.52 -10.55,-19.05 -10.55,-29.79l0 -36.56 26.29 0 0 33.64c0,4.56 0.55,11.25 4.06,14.63 3.58,3.42 10.46,3.96 15.13,3.96 4.36,0 8.87,-0.45 13.01,-1.76 1.74,-0.61 4.26,-1.52 6.07,-2.6l0 -47.86 26.3 0 0 108.4 -26.3 0 0 -38zm119.35 -5.58l-44.09 0 0 43.59 -26.38 0 0 -108.4 26.38 0 0 41.61 44.09 0 0 -41.61 26.29 0 0 108.4 -26.29 0 0 -43.59zm142.48 -42.66c5.2,8.81 7.01,19.02 7.01,29.13l0 3.85c0,10.5 -1.73,21.26 -6.99,30.47 -4.62,8.09 -10.97,14.44 -19.22,18.75 -8.41,4.4 -17.6,6.26 -27.04,6.26 -9.42,0 -18.49,-1.92 -26.88,-6.25 -8.3,-4.3 -14.68,-10.64 -19.31,-18.76 -5.27,-9.22 -7.07,-19.95 -7.07,-30.47l0 -3.85c0,-10.13 1.89,-20.32 7.09,-29.13 4.69,-7.94 11.11,-14.03 19.31,-18.21 8.39,-4.3 17.45,-6.18 26.86,-6.18 9.43,0 18.62,1.82 27.04,6.18 8.14,4.21 14.54,10.31 19.2,18.21zm-19.62 32.98l0 -3.85c0,-5.81 -0.85,-12.02 -3.79,-17.12 -2.35,-4.08 -5.57,-7.44 -9.79,-9.59 -4.11,-2.09 -8.43,-3.16 -13.03,-3.16 -4.57,0 -8.89,1.09 -12.95,3.16 -4.22,2.15 -7.44,5.51 -9.8,9.59 -2.94,5.11 -3.79,11.32 -3.79,17.12l0 3.85c0,6.22 0.82,13.01 3.82,18.55 2.31,4.28 5.47,7.79 9.8,10.07 4.04,2.13 8.36,3.23 12.92,3.23 4.61,0 8.91,-1.08 12.99,-3.23 4.33,-2.28 7.49,-5.79 9.8,-10.07 3.01,-5.53 3.82,-12.33 3.82,-18.55zm36.56 8.74l0 -25.18 65.42 0 0 25.18 -65.42 0zm151.54 -23.36l-46.16 67.9 -24.21 0 0 -108.4 26.29 0 0 67.9 46.25 -67.9 24.22 0 0 108.4 -26.39 0 0 -67.9zm119.35 24.31l-44.08 0 0 43.59 -26.3 0 0 -108.4 26.3 0 0 41.61 44.08 0 0 -41.61 26.29 0 0 108.4 -26.29 0 0 -43.59zm119.34 0l-44.16 0 0 43.59 -26.29 0 0 -108.4 26.29 0 0 41.61 44.16 0 0 -41.61 26.3 0 0 108.4 -26.3 0 0 -43.59zm142.49 -42.66c5.2,8.81 7.02,19.02 7.02,29.13l0 3.85c0,10.5 -1.74,21.26 -7,30.47 -4.61,8.09 -10.97,14.44 -19.21,18.75 -8.41,4.4 -17.61,6.26 -27.06,6.26 -9.4,0 -18.48,-1.92 -26.86,-6.25 -8.31,-4.3 -14.68,-10.64 -19.31,-18.76 -5.27,-9.23 -7.08,-19.94 -7.08,-30.47l0 -3.85c0,-10.13 1.89,-20.32 7.1,-29.13 4.68,-7.94 11.1,-14.03 19.3,-18.21 8.4,-4.3 17.46,-6.18 26.85,-6.18 9.44,0 18.64,1.83 27.05,6.18 8.14,4.21 14.55,10.31 19.2,18.21zm-19.7 32.98l0 -3.85c0,-5.81 -0.85,-12.02 -3.79,-17.12 -2.35,-4.08 -5.49,-7.44 -9.71,-9.59 -4.1,-2.09 -8.43,-3.16 -13.04,-3.16 -4.6,0 -8.84,1.07 -12.94,3.16 -4.23,2.15 -7.44,5.51 -9.8,9.59 -2.94,5.11 -3.78,11.31 -3.78,17.12l0 3.85c0,6.22 0.81,13 3.81,18.55 2.32,4.28 5.48,7.79 9.8,10.07 4.08,2.15 8.31,3.23 12.91,3.23 4.62,0 8.92,-1.08 13.01,-3.23 4.32,-2.27 7.41,-5.81 9.71,-10.07 3.01,-5.54 3.82,-12.33 3.82,-18.55zm122.86 -3.2c3.83,1.74 7.2,4.25 9.87,7.74 3.78,4.94 5.54,10.65 5.54,16.87 0,9.15 -3.01,17.15 -9.88,23.28 -7.85,7.01 -19.64,8.58 -29.76,8.58l-55.15 0 0 -108.4 51.29 0c7.37,0 15.39,0.8 22.2,3.8 5.32,2.34 9.97,5.86 13.06,10.87 2.98,4.85 4.3,10.22 4.3,15.89 0,5.27 -1.65,10.09 -4.5,14.5 -1.86,2.88 -4.22,5.17 -6.98,6.87zm-53.08 -28.81l0 19.5 23.03 0c3.55,0 9.27,-0.33 12.18,-2.7 2.19,-1.79 3.05,-4.25 3.05,-7.05 0,-2.81 -0.89,-5.24 -3.05,-7.05 -2.93,-2.35 -8.59,-2.7 -12.18,-2.7l-23.03 0zm0 41.09l0 21.05 25.94 0c3.69,0 10.04,-0.35 13.01,-2.86 2.39,-2 3.17,-4.8 3.17,-7.83 0,-2.98 -0.72,-5.71 -3.12,-7.63 -3.01,-2.39 -9.38,-2.73 -13.06,-2.73l-25.94 0zm150.94 33.53c-2.7,2.93 -5.95,5.35 -9.43,7.33 -7.19,4.09 -15.43,5.53 -23.62,5.53 -7.02,0 -13.94,-1.28 -20.2,-4.55 -5.52,-2.9 -9.93,-7.06 -12.97,-12.52 -3.06,-5.51 -4.41,-11.56 -4.41,-17.86 0,-9.47 2.51,-18.59 10.03,-24.79 7.81,-6.45 18.69,-8.1 28.5,-8.1l29.89 0 0 -3.24c0,-4.48 -0.57,-11.22 -4.29,-14.35 -3.82,-3.2 -10.03,-3.8 -14.81,-3.8 -4,0 -9.86,0.37 -13.3,2.68 -2.56,1.71 -4.02,3.92 -4.44,6.98l-0.29 2.06 -25.65 0 0.19 -2.57c0.44,-6.24 2.38,-12.05 6.11,-17.09 3.94,-5.34 9.3,-9.01 15.39,-11.58 7.23,-3.04 15.13,-4.13 22.92,-4.13 7.86,0 15.88,1.12 23.17,4.12 6.66,2.75 12,7.07 15.78,13.21 4.26,6.92 5.57,15.26 5.57,23.25l0 41.27c0,4.76 -0.03,9.53 0.17,14.31 0.09,3.95 0.41,7.86 0.93,11.75l0.36 2.72 -24.34 0 -0.3 -2.06c-0.37,-2.58 -0.66,-5.18 -0.87,-7.72 -0.04,-0.29 -0.07,-0.58 -0.09,-0.87zm-2.22 -34.13l-25.95 0c-4.07,0 -8.41,0.68 -11.81,3.06 -2.92,2.07 -3.94,4.98 -3.94,8.5 0,3.44 1.15,6.27 3.7,8.54 3.31,2.75 8.91,3.27 13.07,3.27 4.33,0 8.62,-0.72 12.62,-2.3 3.61,-1.51 6.63,-3.8 9,-6.93 2.4,-3.16 3.29,-6.89 3.29,-10.8l0 -3.33zm140.75 21.65l15.67 0 0 47.61 -24.75 0 0 -24.48 -83.72 0 0 -108.4 26.29 0 0 85.27 40.24 0 0 -85.27 26.29 0 0 85.27zm99.91 -44.77l-46.24 67.91 -24.22 0 0 -108.4 26.3 0 0 67.9 46.24 -67.9 24.21 0 0 108.4 -26.29 0 0 -67.91zm142.4 -18.34c5.22,8.82 7.1,18.97 7.1,29.13l0 3.85c0,10.54 -1.8,21.23 -7.08,30.47 -4.6,8.06 -10.9,14.45 -19.13,18.75 -8.41,4.4 -17.6,6.26 -27.05,6.26 -9.38,0 -18.53,-1.92 -26.87,-6.25 -8.29,-4.31 -14.64,-10.66 -19.31,-18.75 -5.31,-9.22 -7.07,-19.95 -7.07,-30.48l0 -3.85c0,-10.14 1.84,-20.33 7.09,-29.14 4.72,-7.92 11.11,-14 19.29,-18.2 8.37,-4.31 17.5,-6.18 26.87,-6.18 9.44,0 18.62,1.82 27.04,6.18 8.13,4.2 14.47,10.33 19.12,18.21zm-19.61 32.98l0 -3.85c0,-5.81 -0.86,-12.02 -3.8,-17.12 -2.33,-4.05 -5.53,-7.44 -9.72,-9.59 -4.09,-2.11 -8.42,-3.16 -13.02,-3.16 -4.55,0 -8.88,1.02 -12.94,3.16 -4.25,2.13 -7.46,5.52 -9.81,9.59 -2.93,5.11 -3.78,11.32 -3.78,17.12l0 3.85c0,6.22 0.81,13.01 3.81,18.55 2.31,4.26 5.45,7.82 9.82,10.07 4.03,2.21 8.35,3.23 12.9,3.23 4.61,0 8.92,-1.05 12.99,-3.23 4.29,-2.27 7.43,-5.83 9.72,-10.07 3,-5.54 3.83,-12.33 3.83,-18.55zm113.86 9.68l-44.08 0 0 43.59 -26.29 0 0 -108.4 26.29 0 0 41.61 44.08 0 0 -41.61 26.3 0 0 108.4 -26.3 0 0 -43.59zm119.35 0l-44.16 0 0 43.59 -26.3 0 0 -108.4 26.3 0 0 41.61 44.16 0 0 -41.61 26.29 0 0 108.4 -26.29 0 0 -43.59zm114.64 32.94c-2.69,2.93 -5.94,5.35 -9.43,7.33 -7.19,4.09 -15.43,5.53 -23.61,5.53 -7.03,0 -13.95,-1.28 -20.21,-4.55 -5.52,-2.9 -9.93,-7.06 -12.96,-12.52 -3.07,-5.51 -4.42,-11.56 -4.42,-17.86 0,-9.5 2.46,-18.59 10.04,-24.8 7.84,-6.42 18.66,-8.09 28.5,-8.09l29.88 0 0 -3.24c0,-4.48 -0.56,-11.22 -4.29,-14.35 -3.82,-3.2 -10.02,-3.8 -14.81,-3.8 -4,0 -9.86,0.37 -13.3,2.68 -2.56,1.71 -4.01,3.92 -4.44,6.98l-0.29 2.06 -25.65 0 0.19 -2.57c0.45,-6.24 2.39,-12.05 6.11,-17.09 3.94,-5.34 9.31,-9.01 15.38,-11.58 7.24,-3.04 15.14,-4.13 22.94,-4.13 7.85,0 15.87,1.12 23.17,4.12 6.65,2.75 11.99,7.07 15.77,13.21 4.26,6.92 5.58,15.26 5.58,23.25l0 41.27c0,4.76 -0.03,9.53 0.17,14.31 0.08,3.95 0.4,7.86 0.92,11.74l0.37 2.73 -24.35 0 -0.3 -2.07c-0.36,-2.58 -0.66,-5.17 -0.86,-7.71 -0.04,-0.29 -0.08,-0.58 -0.1,-0.87zm-2.22 -34.13l-25.95 0c-4.07,0 -8.41,0.68 -11.8,3.06 -2.92,2.07 -3.95,4.98 -3.95,8.5 0,3.43 1.04,6.27 3.69,8.52 3.27,2.78 8.89,3.29 13,3.29 4.36,0 8.67,-0.71 12.7,-2.3 3.6,-1.51 6.64,-3.77 8.99,-6.92 2.36,-3.15 3.3,-6.9 3.3,-10.81l0 -3.33zm111.55 8.04l-18.62 0 -23.02 36.75 -30.98 0 27.75 -40.44c-6.17,-2.3 -11.68,-5.93 -15.57,-11.45 -4.34,-6.16 -6.08,-13.25 -6.08,-20.73 0,-6.68 1.34,-13.17 4.79,-18.96 3.45,-5.75 8.71,-9.8 14.79,-12.51 7.4,-3.32 15.87,-4.32 23.92,-4.32l49.31 0 0 108.4 -26.29 0 0 -36.75zm0 -23.2l0 -25.33 -24.06 0c-4.03,0 -8.51,0.68 -11.9,2.98 -3.1,2.21 -3.85,6.06 -3.85,9.68 0,3.56 0.75,7.5 3.85,9.68 3.39,2.35 7.87,2.98 11.9,2.98l24.06 0zm153.27 3.47l47.89 56.48 -32.51 0 -36.39 -44.02 -8.21 0 0 44.02 -26.3 0 0 -108.4 26.3 0 0 42.03 8.24 0 36.39 -42.03 30.76 0 -46.18 51.92zm147.6 -29.78c5.25,8.81 7.1,19 7.1,29.14l0 3.85c0,10.53 -1.76,21.26 -7.08,30.48 -4.64,8.05 -10.87,14.45 -19.13,18.75 -8.45,4.38 -17.56,6.25 -27.04,6.25 -9.42,0 -18.57,-1.92 -26.96,-6.25 -8.29,-4.29 -14.61,-10.67 -19.22,-18.76 -5.28,-9.24 -7.09,-19.93 -7.09,-30.47l0 -3.85c0,-10.16 1.89,-20.3 7.1,-29.13 4.67,-7.92 11.04,-14.03 19.22,-18.21 8.41,-4.31 17.54,-6.18 26.95,-6.18 9.47,0 18.58,1.83 27.03,6.18 8.16,4.19 14.43,10.34 19.12,18.2zm-19.62 32.99l0 -3.85c0,-5.81 -0.85,-12.02 -3.78,-17.12 -2.35,-4.07 -5.55,-7.47 -9.81,-9.59 -4.05,-2.14 -8.39,-3.16 -12.93,-3.16 -4.61,0 -8.94,1.05 -13.03,3.16 -4.19,2.15 -7.39,5.54 -9.72,9.59 -2.94,5.11 -3.79,11.32 -3.79,17.12l0 3.85c0,6.22 0.82,13.01 3.82,18.55 2.29,4.24 5.44,7.8 9.72,10.07 4.07,2.18 8.39,3.23 13,3.23 4.55,0 8.86,-1.02 12.89,-3.23 4.37,-2.25 7.51,-5.81 9.81,-10.07 3.01,-5.54 3.82,-12.33 3.82,-18.55zm135.37 -11.11l-23.58 42.88 -18.5 0 -23.58 -42.88 0 64.38 -26.3 0 0 -108.4 28.06 0 31.7 58.01 31.63 -58.01 26.86 0 0 108.4 -26.3 0 0 -64.38zm117.38 -20.9l-42.2 0 0 85.28 -26.3 0 0 -108.4 94.79 0 0 108.4 -26.3 0 0 -85.28zm114.63 74.63c-2.69,2.93 -5.94,5.35 -9.42,7.33 -7.19,4.09 -15.43,5.53 -23.61,5.53 -7.02,0 -13.96,-1.25 -20.21,-4.56 -5.48,-2.89 -9.95,-7.09 -12.97,-12.51 -3.06,-5.51 -4.4,-11.56 -4.4,-17.86 0,-9.47 2.49,-18.59 10.02,-24.79 7.81,-6.45 18.69,-8.1 28.51,-8.1l29.87 0 0 -3.24c0,-4.48 -0.56,-11.22 -4.28,-14.35 -3.82,-3.2 -10.02,-3.8 -14.81,-3.8 -4,0 -9.87,0.37 -13.3,2.68 -2.56,1.71 -4.01,3.92 -4.44,6.98l-0.29 2.06 -25.65 0 0.19 -2.57c0.45,-6.27 2.41,-12.08 6.19,-17.09 3.87,-5.34 9.25,-9.03 15.3,-11.58 7.27,-3.05 15.2,-4.13 23.02,-4.13 7.82,0 15.83,1.14 23.09,4.12 6.65,2.75 11.95,7.1 15.77,13.2 4.3,6.9 5.57,15.26 5.57,23.26l0 41.27c0,4.78 0.08,9.55 0.18,14.34 0.07,3.92 0.4,7.83 0.92,11.71l0.37 2.73 -24.35 0 -0.3 -2.06c-0.37,-2.58 -0.67,-5.18 -0.87,-7.72 -0.04,-0.29 -0.07,-0.58 -0.1,-0.87zm-2.22 -34.13l-25.94 0c-4.07,0 -8.41,0.68 -11.8,3.06 -2.93,2.07 -3.95,4.98 -3.95,8.5 0,3.44 1.15,6.27 3.7,8.54 3.31,2.76 8.91,3.27 13.07,3.27 4.34,0 8.62,-0.72 12.62,-2.3 3.62,-1.51 6.63,-3.8 9,-6.93 2.39,-3.15 3.28,-6.88 3.28,-10.8l0 -3.33zm118.41 1.2l-44.17 0 0 43.59 -26.3 0 0 -108.4 26.3 0 0 41.61 44.17 0 0 -41.61 26.29 0 0 108.4 -26.29 0 0 -43.59zm119.26 -24.31l-46.16 67.9 -24.22 0 0 -108.4 26.3 0 0 67.9 46.24 -67.9 24.22 0 0 108.4 -26.38 0 0 -67.9zm112.5 31.15l-18.62 0 -23.03 36.75 -30.98 0 27.83 -40.44c-6.21,-2.3 -11.69,-5.89 -15.63,-11.44 -4.38,-6.14 -6.1,-13.27 -6.1,-20.74 0,-6.69 1.43,-13.17 4.89,-18.96 3.46,-5.78 8.67,-9.78 14.77,-12.51 7.38,-3.3 15.84,-4.32 23.84,-4.32l49.32 0 0 108.4 -26.29 0 0 -36.75zm0 -23.2l0 -25.33 -23.97 0c-4.03,0 -8.6,0.63 -11.99,2.98 -3.14,2.19 -3.85,6.09 -3.85,9.68 0,3.53 0.72,7.53 3.85,9.68 3.39,2.39 7.97,2.98 11.99,2.98l23.97 0z"/>
   <g>
    <polygon class="fil2" points="509.58,1700.39 509.58,2176.17 644.97,2176.17 644.97,1795.56 833,1795.56 833,2176.17 968.38,2176.17 968.38,1700.39 "/>
    <path class="fil2" d="M1427.19 1904.28c0,27.18 -15.09,40.81 -45.18,40.81l-150.39 0 0 -149.54 150.39 0c30.09,0 45.18,13.55 45.18,40.81l0 67.91zm99.64 -171.57c-23.83,-21.52 -62.07,-32.32 -114.72,-32.32l-315.87 0 0 475.78 135.39 0 0 -135.98 180.49 0c52.65,0 90.89,-10.72 114.72,-32.24 23.83,-21.52 35.75,-56.08 35.75,-103.67l0 -67.91c0,-47.59 -11.92,-82.14 -35.75,-103.67z"/>
    <path class="fil2" d="M2006.3 2047.04c0,27.17 -15.09,40.72 -45.1,40.72l-127.93 0c-30.09,0 -45.1,-13.55 -45.1,-40.72l0 -217.53c0,-27.18 15.01,-40.72 45.1,-40.72l127.93 0c30.01,0 45.1,13.54 45.1,40.72l0 217.53zm99.64 -321.11c-23.84,-21.52 -62.08,-32.33 -114.72,-32.33l-188.04 0c-52.64,0 -90.88,10.81 -114.63,32.33 -23.84,21.52 -35.76,55.99 -35.76,103.58l0 217.53c0,47.5 11.92,82.06 35.76,103.58 23.75,21.52 61.99,32.32 114.63,32.32l188.04 0c52.64,0 90.88,-10.8 114.72,-32.32 23.83,-21.52 35.75,-56.08 35.75,-103.58l0 -217.53c0,-47.59 -11.92,-82.06 -35.75,-103.58z"/>
    <polygon class="fil2" points="2671.92,1795.56 2671.92,1700.39 2254.53,1700.39 2254.53,2176.17 2671.92,2176.17 2671.92,2081 2389.91,2081 2389.91,1982.48 2611.73,1982.48 2611.73,1887.31 2389.91,1887.31 2389.91,1795.56 "/>
    <polygon class="fil2" points="3085.63,1934.89 3157.05,1812.54 3223.93,1700.39 3084.77,1700.39 3047.99,1758.17 2972.79,1887.31 2905.05,1887.31 2905.05,1700.39 2769.67,1700.39 2769.67,2176.17 2905.05,2176.17 2905.05,1982.48 2972.79,1982.48 3089.31,2176.17 3232.24,2176.17 "/>
    <polygon class="fil2" points="3314.99,1700.39 3314.99,1795.56 3472.92,1795.56 3472.92,2176.17 3608.31,2176.17 3608.31,1795.56 3766.25,1795.56 3766.25,1700.39 "/>
   </g>
   <g>
    <rect class="fil0" x="623.44" y="744.36" width="543.53" height="543.52"/>
    <path class="fil3" d="M1166.97 1287.88l-543.53 0 0 -543.52 543.53 0 0 543.52zm-657.39 113.87l771.25 0 0 -771.25 -771.25 0 0 771.25z"/>
    <path class="fil3" d="M1754.14 967.97l-129.3 0 0 -96.21 129.3 0c30.43,0 45.61,13.72 45.61,41.24l0 13.72c0,27.52 -15.18,41.24 -45.61,41.24z"/>
    <path class="fil3" d="M1822.64 1105.42l0 13.72c0,27.52 -15.27,41.24 -45.7,41.24l-152.11 0 0 -96.21 152.11 0c30.43,0 45.7,13.72 45.7,41.24z"/>
    <polygon class="fil3" points="1338.03,1401.67 2109.36,1401.67 2109.36,630.4 1338.03,630.4 "/>
    <polygon class="fil3" points="2166.47,1401.66 2937.72,1401.66 2937.72,630.4 2166.47,630.4 "/>
    <polygon class="fil3" points="2994.91,1401.66 3766.25,1401.66 3766.25,630.4 2994.91,630.4 "/>
    <path class="fil0" d="M1620.45 1052.63l115.73 0c23.15,0 34.77,10.44 34.77,31.38l0 10.44c0,20.93 -11.62,31.37 -34.77,31.37l-115.73 0 0 -73.19zm228 122.38c17.75,-16.04 26.62,-41.16 26.62,-75.35 0,-14.29 -1.89,-26.81 -5.74,-37.64 -11.22,-29.95 -32.42,-48.8 -63.67,-56.43 14.68,-5.29 27,-14.42 37.05,-27.47 9.97,-13.1 15,-30.06 15,-51.01 0,-31.71 -8.86,-55.33 -26.61,-70.86 -17.74,-15.53 -45.54,-23.28 -83.3,-23.28l-231.53 0 0 366.11 248.88 0c37.77,0 65.56,-8.02 83.3,-24.07zm-129.62 -195.59l-98.38 0 0 -73.19 98.38 0c23.16,0 34.7,10.44 34.7,31.38l0 10.44c0,20.94 -11.54,31.37 -34.7,31.37z"/>
    <polygon class="fil0" points="2315.84,773.09 2315.84,1259.07 2454.14,1259.07 2454.14,1061.21 2523.29,1061.21 2642.41,1259.07 2788.34,1259.07 2638.52,1012.61 2711.55,887.65 2779.84,773.09 2637.72,773.09 2600.16,832.14 2523.29,964.02 2454.14,964.02 2454.14,773.09 "/>
    <path class="fil0" d="M3240.07 944.85l0 142.45c0,61.76 50.05,111.88 111.81,111.88l169.2 0 0 -85.06 -102.87 0c-0.64,0 -1.29,0 -1.92,-0.06 -40.79,-0.97 -73.54,-34.36 -73.54,-75.41l0 -45.16c0,-41.04 32.75,-74.44 73.54,-75.4 0.64,-0.07 1.29,-0.07 1.92,-0.07l102.87 0 0 -85.05 -169.2 0c-61.76,0 -111.81,50.12 -111.81,111.87z"/>
   </g>
  </g>
 </g>
</svg>
